# xmcd CD database file
#
# Track frame offsets:
#	150
#	33384
#	54920
#	71570
#	93191
#	114359
#	144136
#	174413
#	205585
#	259683
#
# Disc length: 3877 seconds
#
# Revision: 0
# Processed by: cddbd v1.4PL0 Copyright (c) Steve Scherf et al.
# Submitted via: CDex 1.51
#
DISCID=780f230a
DTITLE=Mingus - Best Of...
DYEAR=1900
DGENRE=Jazz
TTITLE0=Better Get It In Your Soul
TTITLE1=Goodbye Pork Pie Hat
TTITLE2=Boogie Stop Shuffle
TTITLE3=H.B.S.
TTITLE4=Hora Decubitus
TTITLE5=Solo Dancer
TTITLE6=Duet Solo Dancers
TTITLE7=Jump Monk
TTITLE8=Hatian Fight Song
TTITLE9=Ecelusiastics
EXTD=
EXTT0=
EXTT1=
EXTT2=
EXTT3=
EXTT4=
EXTT5=
EXTT6=
EXTT7=
EXTT8=
EXTT9=
PLAYORDER=
